<?xml version="1.0" encoding="UTF-8"?>
<!DOCTYPE svg PUBLIC "-//W3C//DTD SVG 1.1//EN" "http://www.w3.org/Graphics/SVG/1.1/DTD/svg11.dtd">
<!-- Creator: CorelDRAW 2018 (64-Bit) -->
<svg xmlns="http://www.w3.org/2000/svg" xml:space="preserve" width="210mm" height="297mm" version="1.1" style="shape-rendering:geometricPrecision; text-rendering:geometricPrecision; image-rendering:optimizeQuality; fill-rule:evenodd; clip-rule:evenodd"
viewBox="0 0 21000 29700"
 xmlns:xlink="http://www.w3.org/1999/xlink">
 <defs>
  <style type="text/css">
   <![CDATA[
    .fil0 {fill:#2B2A29;fill-rule:nonzero}
   ]]>
  </style>
 </defs>
 <g id="Слой_x0020_1">
  <metadata id="CorelCorpID_0Corel-Layer"/>
  <path class="fil0" d="M4329.68 1651.33c0.14,-49.92 -1.41,-51.83 -53.6,-51.33 -125.94,1.16 -250.47,-13.86 -374.24,-32.59 -449.76,-67.86 -1908.42,-833.05 -2155.2,-2084.78 -4.98,-24.43 -59.99,-335 -59.34,-467.33 0.39,-59.19 -0.76,-59.3 -59.09,-60.2 -13.5,-0.26 -27,0 -40.5,0 -570.71,0 -1141.56,-0.4 -1712.41,0.1 -115.01,0.15 -98.83,-14.25 -98.83,101.11 -0.37,2475.44 -0.37,4951.02 0.14,7426.57 0,92.33 -2.67,184.52 -18.84,275.04 -86.09,478.92 -331.47,853.96 -746.71,1110.02 -359.73,221.84 -750.29,285.12 -1164.88,203.11 -130.67,-25.85 -253.28,-75.12 -376.04,-123.77 -10.08,-9.17 -20,-18.23 -29.93,-27.26 -41.26,-34.65 -86.7,-63.16 -131.03,-93.85 -528.44,-365.97 -779.05,-873.91 -702.78,-1509.19 77.43,-644.45 448.24,-1082 1059.08,-1307.38 182.22,-67.25 374.24,-95.01 569.05,-84.54 125.43,6.61 250.36,22.52 371.97,57.18 42.01,11.94 64.83,-2.96 66.99,-47.51 0.76,-15.81 1.12,-31.47 1.12,-47.14 0.14,-444.37 -16.53,-1415.09 -18.84,-1417.26 0.9,-127.95 0.9,-255.95 3.17,-383.76 0.8,-36.93 -17.54,-43.32 -48.62,-47 -230.21,-27.4 -460.47,-32.49 -692.09,-15.56 -319.99,23.46 -630.05,89.01 -931.45,197.52 -480.83,172.93 -902.83,440.22 -1267.14,797.13 -312.88,306.49 -558.76,660.88 -739.06,1060.35 -172.68,382.25 -271.51,783.63 -298.76,1201.3 -11.95,181.2 -9.67,363.01 7.15,544.86 23.17,251.23 70.78,497 147.19,737.04 219.65,689.79 618.76,1255.66 1185.13,1704.54 57.58,45.7 112.84,95.76 181.85,125.43l0 0c28.92,25.6 57.79,51.3 86.7,76.89 91.69,69.16 189.87,128.25 292.49,178.92 634.41,313.39 1302.69,440.73 2007.09,354.75 913.91,-111.68 1675.38,-516.6 2274.79,-1214.4 564.21,-656.8 838.35,-1427.83 843.34,-2289.65 7.14,-1232.89 1.66,-2465.77 2.41,-3698.65 0,-29.42 -16.92,-71.18 15.53,-85.95 25.33,-11.58 50.82,22.02 74.64,37.69 458.92,301.4 953.61,519.27 1489.45,641.92 311.87,71.29 626.87,114.61 947.66,114.07 101.21,-0.11 114.6,-5.2 114.71,-105.44 0.65,-437.91 -22.42,-1634.73 -22.27,-1751z"/>
 </g>
</svg>
